<svg id="visual" viewBox="0 0 900 600" width="900" height="600" xmlns="http://www.w3.org/2000/svg" xmlns:xlink="http://www.w3.org/1999/xlink" version="1.1"><rect x="0" y="0" width="900" height="600" fill="#001220"></rect><defs><linearGradient id="grad1_0" x1="33.3%" y1="0%" x2="100%" y2="100%"><stop offset="20%" stop-color="#001220" stop-opacity="1"></stop><stop offset="80%" stop-color="#001220" stop-opacity="1"></stop></linearGradient></defs><defs><linearGradient id="grad2_0" x1="0%" y1="0%" x2="66.7%" y2="100%"><stop offset="20%" stop-color="#001220" stop-opacity="1"></stop><stop offset="80%" stop-color="#001220" stop-opacity="1"></stop></linearGradient></defs><g transform="translate(900, 0)"><path d="M0 351.5C-67.4 345.7 -134.8 340 -175.8 304.4C-216.8 268.9 -231.4 203.7 -256.3 148C-281.2 92.3 -316.4 46.2 -351.5 0L0 0Z" fill="#66CDAA"></path></g><g transform="translate(0, 600)"><path d="M0 -351.5C57.6 -336.3 115.2 -321 169.5 -293.6C223.8 -266.2 274.7 -226.7 304.4 -175.8C334.2 -124.8 342.9 -62.4 351.5 0L0 0Z" fill="#66CDAA"></path></g></svg>