<svg id="visual" viewBox="0 0 900 600" width="900" height="600" xmlns="http://www.w3.org/2000/svg" xmlns:xlink="http://www.w3.org/1999/xlink" version="1.1"><rect x="0" y="0" width="900" height="600" fill="#001220"></rect><defs><linearGradient id="grad1_0" x1="33.3%" y1="0%" x2="100%" y2="100%"><stop offset="20%" stop-color="#66cdaa" stop-opacity="1"></stop><stop offset="80%" stop-color="#66cdaa" stop-opacity="1"></stop></linearGradient></defs><defs><linearGradient id="grad1_1" x1="33.3%" y1="0%" x2="100%" y2="100%"><stop offset="20%" stop-color="#66cdaa" stop-opacity="1"></stop><stop offset="80%" stop-color="#299b96" stop-opacity="1"></stop></linearGradient></defs><defs><linearGradient id="grad1_2" x1="33.3%" y1="0%" x2="100%" y2="100%"><stop offset="20%" stop-color="#006976" stop-opacity="1"></stop><stop offset="80%" stop-color="#299b96" stop-opacity="1"></stop></linearGradient></defs><defs><linearGradient id="grad1_3" x1="33.3%" y1="0%" x2="100%" y2="100%"><stop offset="20%" stop-color="#006976" stop-opacity="1"></stop><stop offset="80%" stop-color="#023b4d" stop-opacity="1"></stop></linearGradient></defs><defs><linearGradient id="grad1_4" x1="33.3%" y1="0%" x2="100%" y2="100%"><stop offset="20%" stop-color="#001220" stop-opacity="1"></stop><stop offset="80%" stop-color="#023b4d" stop-opacity="1"></stop></linearGradient></defs><defs><linearGradient id="grad2_0" x1="0%" y1="0%" x2="66.7%" y2="100%"><stop offset="20%" stop-color="#66cdaa" stop-opacity="1"></stop><stop offset="80%" stop-color="#66cdaa" stop-opacity="1"></stop></linearGradient></defs><defs><linearGradient id="grad2_1" x1="0%" y1="0%" x2="66.7%" y2="100%"><stop offset="20%" stop-color="#299b96" stop-opacity="1"></stop><stop offset="80%" stop-color="#66cdaa" stop-opacity="1"></stop></linearGradient></defs><defs><linearGradient id="grad2_2" x1="0%" y1="0%" x2="66.7%" y2="100%"><stop offset="20%" stop-color="#299b96" stop-opacity="1"></stop><stop offset="80%" stop-color="#006976" stop-opacity="1"></stop></linearGradient></defs><defs><linearGradient id="grad2_3" x1="0%" y1="0%" x2="66.7%" y2="100%"><stop offset="20%" stop-color="#023b4d" stop-opacity="1"></stop><stop offset="80%" stop-color="#006976" stop-opacity="1"></stop></linearGradient></defs><defs><linearGradient id="grad2_4" x1="0%" y1="0%" x2="66.7%" y2="100%"><stop offset="20%" stop-color="#023b4d" stop-opacity="1"></stop><stop offset="80%" stop-color="#001220" stop-opacity="1"></stop></linearGradient></defs><g transform="translate(900, 0)"><path d="M0 513.8C-70.5 467.7 -141 421.6 -222 384.5C-303 347.5 -394.6 319.5 -445 256.9C-495.3 194.3 -504.6 97.2 -513.8 0L0 0Z" fill="#042637"></path><path d="M0 411C-56.4 374.1 -112.8 337.3 -177.6 307.6C-242.4 278 -315.7 255.6 -356 205.5C-396.3 155.5 -403.7 77.7 -411 0L0 0Z" fill="#005163"></path><path d="M0 308.3C-42.3 280.6 -84.6 252.9 -133.2 230.7C-181.8 208.5 -236.7 191.7 -267 154.1C-297.2 116.6 -302.7 58.3 -308.3 0L0 0Z" fill="#0e8287"></path><path d="M0 205.5C-28.2 187.1 -56.4 168.6 -88.8 153.8C-121.2 139 -157.8 127.8 -178 102.8C-198.1 77.7 -201.8 38.9 -205.5 0L0 0Z" fill="#46b4a1"></path><path d="M0 102.8C-14.1 93.5 -28.2 84.3 -44.4 76.9C-60.6 69.5 -78.9 63.9 -89 51.4C-99.1 38.9 -100.9 19.4 -102.8 0L0 0Z" fill="#66cdaa"></path></g><g transform="translate(0, 600)"><path d="M0 -513.8C91.3 -501.2 182.5 -488.5 256.9 -445C331.2 -401.4 388.7 -326.8 428.7 -247.5C468.7 -168.2 491.2 -84.1 513.8 0L0 0Z" fill="#042637"></path><path d="M0 -411C73 -400.9 146 -390.8 205.5 -356C265 -321.1 310.9 -261.5 342.9 -198C374.9 -134.5 393 -67.3 411 0L0 0Z" fill="#005163"></path><path d="M0 -308.3C54.8 -300.7 109.5 -293.1 154.1 -267C198.7 -240.8 233.2 -196.1 257.2 -148.5C281.2 -100.9 294.7 -50.5 308.3 0L0 0Z" fill="#0e8287"></path><path d="M0 -205.5C36.5 -200.5 73 -195.4 102.8 -178C132.5 -160.5 155.5 -130.7 171.5 -99C187.5 -67.3 196.5 -33.6 205.5 0L0 0Z" fill="#46b4a1"></path><path d="M0 -102.8C18.3 -100.2 36.5 -97.7 51.4 -89C66.2 -80.3 77.7 -65.4 85.7 -49.5C93.7 -33.6 98.2 -16.8 102.8 0L0 0Z" fill="#66cdaa"></path></g></svg>